#!OML:ASF I:\Actors\actors\Patient Classification 2\Patient 1\Session 1\actor1.ASF
:FULLY-SPECIFIED
:DEGREES
405
root -0.772542 18.5011 7.11339 -0.145853 0.45388 -3.56254
lowerback 6.93135 0.276955 -1.511
upperback -5.5004 0.269447 0.769273
thorax -9.75768 0.266146 1.62817
lowerneck -23.2213 -2.47337 -1.23959
upperneck 23.2741 -4.17064 3.94922
head 11.5664 -1.46494 0.977253
rclavicle 3.8763e-015 -1.98785e-015
rhumerus -19.4966 -35.0352 7.65733
rradius 64.7863
rwrist -26.7117
rhand 26.4714 -35.3175
rfingers 7.12502
rthumb 50.5085 -56.2691
lclavicle 3.8763e-015 -1.98785e-015
lhumerus -2.92415 50.0898 3.32442
lradius 49.6009
lwrist 34.1488
lhand 13.9776 -24.5434
lfingers 7.12502
lthumb 38.8884 1.00846
rfemur 13.7156 0.47319 17.7459
rtibia 2.06736e-014
rfoot -20.6148 -9.06832
rtoes -8.89217
lfemur -0.0010041 -9.40566 -11.8434
ltibia 24.137
lfoot -27.1008 12.3775
ltoes -56.0382
406
root -0.776463 18.5002 7.11202 -0.219688 0.504777 -3.58849
lowerback 7.49397 0.319149 -1.27274
upperback -5.6754 0.337234 0.658095
thorax -10.2875 0.283367 1.36514
lowerneck -23.1808 -2.53954 -1.22753
upperneck 23.3351 -4.2837 3.98908
head 11.5864 -1.50898 0.971615
rclavicle 2.83268e-015 2.38542e-015
rhumerus -19.9934 -34.8907 8.09153
rradius 64.6533
rwrist -26.8365
rhand 26.4719 -35.3575
rfingers 7.12502
rthumb 50.509 -56.3088
lclavicle 2.83268e-015 2.38542e-015
lhumerus -2.6409 49.9896 3.46454
lradius 49.3047
lwrist 33.8804
lhand 14.1545 -24.6082
lfingers 7.12502
lthumb 39.0552 0.896023
rfemur 13.8019 0.423215 17.7882
rtibia 2.70347e-014
rfoot -20.606 -9.09005
rtoes -8.99461
lfemur 0.044285 -9.38772 -11.7953
ltibia 24.1616
lfoot -27.0685 12.3095
ltoes -56.0397
407
root -0.778628 18.4999 7.11135 -0.26681 0.540292 -3.61931
lowerback 7.40316 0.290416 -1.37747
upperback -5.39165 0.300258 0.801099
thorax -9.91919 0.273871 1.58226
lowerneck -23.4467 -2.52345 -1.295
upperneck 23.0912 -4.20817 3.94103
head 11.5416 -1.48748 0.974703
rclavicle -1.04362e-015 1.19271e-015
rhumerus -19.8993 -35.6218 8.29835
rradius 64.4832
rwrist -26.8073
rhand 26.3157 -35.2669
rfingers 7.12502
rthumb 50.3663 -56.2952
lclavicle -1.04362e-015 1.19271e-015
lhumerus -3.28899 50.2184 2.9992
lradius 49.3122
lwrist 34.2033
lhand 14.3099 -24.6408
lfingers 7.12502
lthumb 39.2017 0.821204
rfemur 13.861 0.388448 17.8272
rtibia 9.54166e-015
rfoot -20.6149 -9.07782
rtoes -8.90269
lfemur 0.0661019 -9.31808 -11.7338
ltibia 24.1806
lfoot -27.0143 12.2066
ltoes -56.0891
408
root -0.778903 18.5002 7.11182 -0.260061 0.553876 -3.62733
lowerback 8.05146 0.366052 -1.00225
upperback -5.72251 0.422652 0.591708
thorax -10.6743 0.304785 1.12675
lowerneck -23.5152 -2.70115 -1.38791
upperneck 23.5456 -4.49228 4.08894
head 11.7444 -1.59542 0.99826
rclavicle -1.33683e-014 -3.97569e-016
rhumerus -20.604 -35.1176 8.80708
rradius 64.6167
rwrist -27.0069
rhand 26.2062 -35.1405
rfingers 7.12502
rthumb 50.2662 -56.2223
lclavicle -1.33683e-014 -3.97569e-016
lhumerus -3.33728 49.3721 2.73396
lradius 49.4424
lwrist 34.8323
lhand 14.2438 -24.617
lfingers 7.12502
lthumb 39.1393 0.862965
rfemur 13.864 0.374433 17.8365
rtibia 1.90833e-014
rfoot -20.6157 -9.07057
rtoes -8.90338
lfemur 0.0414548 -9.22937 -11.6998
ltibia 24.1944
lfoot -26.9852 12.1278
ltoes -56.1118
409
root -0.777967 18.5009 7.11364 -0.199373 0.561399 -3.56969
lowerback 8.3256 0.406377 -0.879209
upperback -5.84389 0.482023 0.499544
thorax -10.975 0.322089 0.947232
lowerneck -23.6265 -2.7537 -1.48829
upperneck 23.7896 -4.56449 4.16592
head 11.867 -1.62086 1.03145
rclavicle -1.9133e-014 3.97569e-016
rhumerus -20.9502 -35.0703 9.15165
rradius 64.7153
rwrist -27.0231
rhand 26.6778 -35.1496
rfingers 7.12502
rthumb 50.6969 -55.9986
lclavicle -1.9133e-014 3.97569e-016
lhumerus -3.21785 49.284 2.89252
lradius 49.5019
lwrist 34.9441
lhand 14.0817 -24.7353
lfingers 7.12502
lthumb 38.9865 0.788621
rfemur 13.8089 0.366144 17.7679
rtibia -1.59028e-015
rfoot -20.6409 -9.0487
rtoes -8.94756
lfemur -0.0262821 -9.21886 -11.7581
ltibia 24.2077
lfoot -26.9983 12.1251
ltoes -56.0986
410
root -0.776556 18.5021 7.11724 -0.103656 0.568039 -3.52121
lowerback 8.19999 0.389869 -0.949877
upperback -5.71786 0.45659 0.552757
thorax -10.7585 0.315902 1.04914
lowerneck -23.6774 -2.6315 -1.488
upperneck 23.5948 -4.37019 4.13401
head 11.794 -1.54036 1.05152
rclavicle 2.40032e-014 -3.97569e-016
rhumerus -20.8515 -35.5555 9.27199
rradius 64.67
rwrist -26.9681
rhand 26.9652 -35.3186
rfingers 7.12502
rthumb 50.959 -56.0229
lclavicle 2.40032e-014 -3.97569e-016
lhumerus -3.07126 49.976 3.33919
lradius 49.4966
lwrist 34.6772
lhand 14.085 -25.0096
lfingers 7.12502
lthumb 38.9897 0.513361
rfemur 13.7146 0.357279 17.7073
rtibia 2.06736e-014
rfoot -20.6598 -9.03618
rtoes -9.06305
lfemur -0.120906 -9.26622 -11.8094
ltibia 24.2157
lfoot -27.0412 12.125
ltoes -55.9921
411
root -0.774871 18.5028 7.1234 -0.018741 0.556359 -3.4862
lowerback 7.69908 0.325576 -1.22928
upperback -5.33778 0.357712 0.750726
thorax -10.0365 0.2899 1.43562
lowerneck -23.8987 -2.45112 -1.32354
upperneck 23.2518 -4.07384 3.8487
head 11.6826 -1.43283 0.965283
rclavicle 1.61513e-014 5.96354e-015
rhumerus -20.4085 -36.4834 9.19714
rradius 64.5635
rwrist -26.971
rhand 26.9351 -35.1958
rfingers 7.12502
rthumb 50.9316 -55.9153
lclavicle 1.61513e-014 5.96354e-015
lhumerus -3.41688 50.9513 3.37789
lradius 49.5192
lwrist 34.6166
lhand 14.0933 -25.1585
lfingers 7.12502
lthumb 38.9975 0.362241
rfemur 13.6409 0.366606 17.6634
rtibia 1.59028e-014
rfoot -20.6313 -9.06174
rtoes -9.29393
lfemur -0.197449 -9.22955 -11.8353
ltibia 24.2211
lfoot -27.0293 12.1107
ltoes -55.9641
412
root -0.772382 18.5025 7.13084 0.0449598 0.533356 -3.40627
lowerback 7.67367 0.317776 -1.2632
upperback -5.32882 0.341689 0.732886
thorax -10.0109 0.283486 1.4382
lowerneck -23.971 -2.40494 -1.22692
upperneck 23.3493 -4.02302 3.75761
head 11.7277 -1.41096 0.923884
rclavicle -1.39149e-015 -9.14409e-015
rhumerus -20.4254 -36.5522 9.26067
rradius 64.5915
rwrist -27.05
rhand 26.9651 -34.8425
rfingers 7.12502
rthumb 50.9589 -55.5468
lclavicle -1.39149e-015 -9.14409e-015
lhumerus -3.58756 50.9635 3.20803
lradius 49.5444
lwrist 34.9929
lhand 14.0898 -25.2233
lfingers 7.12502
lthumb 38.9942 0.298404
rfemur 13.6002 0.388788 17.5681
rtibia -3.18055e-015
rfoot -20.625 -9.08445
rtoes -9.41762
lfemur -0.249388 -9.09768 -11.907
ltibia 24.2314
lfoot -26.9602 12.0638
ltoes -56.0545
413
root -0.769152 18.5031 7.13787 0.12605 0.5203 -3.33393
lowerback 7.65616 0.315494 -1.2719
upperback -5.35352 0.33535 0.706845
thorax -10.0275 0.280233 1.41634
lowerneck -24.0324 -2.3943 -1.21203
upperneck 23.5239 -4.0133 3.72794
head 11.8051 -1.40575 0.912264
rclavicle -1.61513e-014 -3.97569e-015
rhumerus -20.5196 -36.4222 9.36699
rradius 64.6157
rwrist -27.0693
rhand 26.9958 -34.5648
rfingers 7.12502
rthumb 50.987 -55.2535
lclavicle -1.61513e-014 -3.97569e-015
lhumerus -3.74307 50.9817 3.11179
lradius 49.6281
lwrist 35.3632
lhand 14.0405 -25.31
lfingers 7.12502
lthumb 38.9478 0.224938
rfemur 13.5391 0.400382 17.4776
rtibia 6.20208e-014
rfoot -20.6661 -9.07277
rtoes -9.49479
lfemur -0.326884 -8.96215 -11.9641
ltibia 24.2442
lfoot -26.9004 11.9743
ltoes -56.1208
414
root -0.765719 18.5048 7.14408 0.233022 0.497764 -3.32314
lowerback 8.11251 0.367423 -0.930128
upperback -5.74297 0.423678 0.49288
thorax -10.7322 0.29584 0.979591
lowerneck -23.8935 -2.48669 -1.16471
upperneck 24.014 -4.19379 3.74789
head 11.9732 -1.4738 0.883685
rclavicle -7.50412e-015 -3.57812e-015
rhumerus -21.0481 -35.6165 9.61303
rradius 64.6977
rwrist -27.2799
rhand 27.0977 -34.3299
rfingers 7.12502
rthumb 51.0798 -54.9667
lclavicle -7.50412e-015 -3.57812e-015
lhumerus -3.55015 50.517 3.2333
lradius 49.7855
lwrist 35.6539
lhand 13.926 -25.3602
lfingers 7.12502
lthumb 38.8397 0.205538
rfemur 13.4359 0.419528 17.4541
rtibia 6.83819e-014
rfoot -20.6871 -9.05207
rtoes -9.59895
lfemur -0.437423 -8.83284 -11.9489
ltibia 24.258
lfoot -26.8473 11.8946
ltoes -56.1673
415
root -0.760839 18.507 7.15057 0.338745 0.445879 -3.32202
lowerback 8.22955 0.365693 -0.781541
upperback -5.8807 0.433632 0.429225
thorax -10.9553 0.288176 0.825403
lowerneck -23.8679 -2.47686 -1.0794
upperneck 24.3143 -4.21069 3.6901
head 12.0822 -1.47678 0.846136
rclavicle 9.0447e-015 9.14409e-015
rhumerus -21.2107 -35.3778 9.6397
rradius 64.6885
rwrist -27.4574
rhand 27.0666 -34.1351
rfingers 7.12502
rthumb 51.0514 -54.7877
lclavicle 9.0447e-015 9.14409e-015
lhumerus -3.75337 50.5245 3.08479
lradius 49.8671
lwrist 35.7628
lhand 13.7524 -25.3898
lfingers 7.12502
lthumb 38.676 0.222243
rfemur 13.3235 0.468536 17.4351
rtibia 3.18055e-014
rfoot -20.6695 -9.07089
rtoes -9.77826
lfemur -0.53001 -8.72911 -11.9423
ltibia 24.2782
lfoot -26.8109 11.8436
ltoes -56.1851
416
root -0.754792 18.509 7.15759 0.391007 0.35492 -3.30609
lowerback 8.25238 0.361373 -0.72804
upperback -5.88964 0.43527 0.435296
thorax -10.9787 0.28528 0.80149
lowerneck -23.9235 -2.44926 -1.05285
upperneck 24.5517 -4.18256 3.65344
head 12.1835 -1.46215 0.833213
rclavicle -1.26228e-014 1.59028e-015
rhumerus -21.2388 -35.4035 9.62803
rradius 64.6097
rwrist -27.5801
rhand 26.8744 -34.2006
rfingers 7.12502
rthumb 50.8762 -54.9509
lclavicle -1.26228e-014 1.59028e-015
lhumerus -4.24998 50.5997 2.64596
lradius 49.9156
lwrist 35.9818
lhand 13.5019 -25.4037
lfingers 7.12502
lthumb 38.4396 0.274572
rfemur 13.2684 0.559567 17.3948
rtibia 4.77083e-015
rfoot -20.639 -9.09928
rtoes -9.78374
lfemur -0.544854 -8.63307 -11.9726
ltibia 24.3021
lfoot -26.7688 11.8164
ltoes -56.237
417
root -0.749647 18.5104 7.16373 0.392163 0.232171 -3.3381
lowerback 8.1646 0.364847 -0.738761
upperback -5.73733 0.449335 0.542028
thorax -10.7563 0.296197 0.920228
lowerneck -24.1259 -2.43439 -1.08005
upperneck 24.689 -4.11103 3.5012
head 12.2707 -1.44911 0.791504
rclavicle -1.98785e-015 3.18055e-015
rhumerus -21.1146 -35.6917 9.64077
rradius 64.4025
rwrist -27.6264
rhand 26.7994 -34.4969
rfingers 7.12502
rthumb 50.8078 -55.2849
lclavicle -1.98785e-015 3.18055e-015
lhumerus -5.11376 50.8238 2.01108
lradius 50.0585
lwrist 36.3063
lhand 13.5773 -25.4604
lfingers 7.12502
lthumb 38.5108 0.197983
rfemur 13.2713 0.68372 17.414
rtibia 1.59028e-014
rfoot -20.6283 -9.06218
rtoes -9.22255
lfemur -0.50552 -8.50459 -11.9426
ltibia 24.3217
lfoot -26.7221 11.785
ltoes -56.3238
418
root -0.744118 18.5141 7.16917 0.401773 0.0968956 -3.40631
lowerback 7.70297 0.312236 -0.942354
upperback -5.3308 0.380094 0.81214
thorax -10.0295 0.283178 1.33622
lowerneck -24.3434 -2.29697 -1.02492
upperneck 24.522 -3.83105 3.18285
head 12.2292 -1.36313 0.708703
rclavicle -5.11871e-015 7.15625e-015
rhumerus -20.6557 -36.4548 9.48352
rradius 64.1245
rwrist -27.4362
rhand 26.9224 -34.4381
rfingers 7.12502
rthumb 50.92 -55.164
lclavicle -5.11871e-015 7.15625e-015
lhumerus -6.35749 51.5495 1.28792
lradius 50.2265
lwrist 36.3422
lhand 13.8297 -25.5416
lfingers 7.12502
lthumb 38.749 0.0498843
rfemur 13.2676 0.819618 17.475
rtibia 2.54444e-014
rfoot -20.6266 -9.02644
rtoes -8.71883
lfemur -0.465529 -8.37318 -11.868
ltibia 24.3231
lfoot -26.7211 11.7478
ltoes -56.3627
419
root -0.736911 18.5219 7.17461 0.434451 -0.0491095 -3.44058
lowerback 7.76433 0.299961 -0.8644
upperback -5.35753 0.376348 0.851233
thorax -10.0953 0.278123 1.33489
lowerneck -24.1137 -2.1791 -0.948658
upperneck 24.6018 -3.6704 3.09552
head 12.2081 -1.29821 0.692979
rclavicle 1.54058e-015 6.36111e-015
rhumerus -20.6803 -36.4085 9.39781
rradius 64.031
rwrist -27.289
rhand 26.5563 -34.2714
rfingers 7.12502
rthumb 50.586 -55.1809
lclavicle 1.54058e-015 6.36111e-015
lhumerus -6.90022 51.6731 1.03375
lradius 50.3066
lwrist 36.1129
lhand 13.7469 -25.5825
lfingers 7.12502
lthumb 38.6708 0.0309885
rfemur 13.2329 0.965838 17.4938
rtibia -2.54444e-014
rfoot -20.5826 -9.09059
rtoes -8.70548
lfemur -0.434179 -8.09298 -11.8074
ltibia 24.3019
lfoot -26.643 11.6415
ltoes -56.4956
